<svg xmlns="http://www.w3.org/2000/svg" xmlns:xlink="http://www.w3.org/1999/xlink" width="500" zoomAndPan="magnify" viewBox="0 0 375 374.999991" height="500" preserveAspectRatio="xMidYMid meet" version="1.0"><defs><g/><clipPath id="d508d5d4b0"><path d="M 142.675781 111 L 241.675781 111 L 241.675781 176 L 142.675781 176 Z M 142.675781 111 " clip-rule="nonzero"/></clipPath></defs><g fill="#272727" fill-opacity="1"><g transform="translate(114.380167, 232.304882)"><g><path d="M 5.511719 -3.320312 L 18.335938 -17.691406 C 18.691406 -18.175781 18.886719 -18.628906 18.886719 -18.980469 C 18.886719 -19.820312 18.175781 -20.527344 16.886719 -20.527344 L 2.417969 -20.527344 C 1.257812 -20.527344 0.675781 -19.660156 0.675781 -18.886719 C 0.675781 -18.113281 1.257812 -17.304688 2.449219 -17.304688 L 13.277344 -17.304688 L 0.546875 -2.773438 C 0.195312 -2.351562 0.03125 -1.902344 0.03125 -1.546875 C 0.03125 -0.710938 0.742188 0 2.03125 0 L 16.984375 0 C 18.242188 -0.0664062 18.851562 -0.871094 18.851562 -1.675781 C 18.851562 -2.480469 18.242188 -3.320312 16.984375 -3.320312 Z M 5.511719 -3.320312 "/></g></g></g><g fill="#272727" fill-opacity="1"><g transform="translate(135.682211, 232.304882)"><g><path d="M 2.289062 -7.960938 L 8.410156 -7.960938 C 9.699219 -7.960938 10.3125 -8.765625 10.3125 -9.570312 C 10.3125 -10.410156 9.667969 -11.214844 8.410156 -11.214844 L 2.289062 -11.214844 C 1.0625 -11.214844 0.417969 -10.410156 0.417969 -9.570312 C 0.417969 -8.796875 1 -7.960938 2.289062 -7.960938 Z M 2.289062 -7.960938 "/></g></g></g><g fill="#272727" fill-opacity="1"><g transform="translate(148.959841, 232.304882)"><g><path d="M 0.226562 -4.867188 C 1.320312 -0.839844 6.445312 0.324219 9.796875 0.324219 C 13.824219 0.324219 19.464844 -1.097656 19.464844 -6.21875 C 19.464844 -11.34375 14.632812 -11.539062 10.152344 -11.957031 C 6.992188 -12.183594 4.285156 -12.441406 4.285156 -14.535156 C 4.285156 -16.789062 7.765625 -17.402344 9.507812 -17.402344 C 11.472656 -17.402344 14.375 -17.144531 15.148438 -15.148438 C 15.40625 -14.566406 16.082031 -14.246094 16.789062 -14.246094 C 17.886719 -14.246094 18.980469 -15.148438 18.628906 -16.339844 C 17.113281 -19.882812 12.828125 -20.851562 9.476562 -20.851562 C 5.445312 -20.851562 0.417969 -18.980469 0.417969 -14.566406 C 0.417969 -9.667969 5.414062 -9.054688 9.796875 -8.703125 C 12.664062 -8.476562 15.597656 -8.21875 15.597656 -6.1875 C 15.597656 -3.640625 12.054688 -3.0625 9.796875 -3.0625 C 7.636719 -3.0625 4.671875 -3.546875 3.964844 -5.640625 C 3.804688 -6.476562 3.03125 -6.898438 2.191406 -6.898438 C 1.0625 -6.898438 -0.0976562 -6.125 0.226562 -4.867188 Z M 0.226562 -4.867188 "/></g></g></g><g fill="#272727" fill-opacity="1"><g transform="translate(171.293136, 232.304882)"><g><path d="M 16.695312 -20.527344 L 1 -20.527344 C -0.257812 -20.527344 -0.804688 -19.691406 -0.804688 -18.851562 C -0.804688 -18.046875 -0.257812 -17.210938 1 -17.210938 L 6.960938 -17.210938 L 6.960938 -1.707031 C 6.960938 -0.546875 7.929688 0 8.832031 0 C 9.667969 0 10.730469 -0.546875 10.730469 -1.707031 L 10.699219 -17.210938 L 16.695312 -17.210938 C 17.917969 -17.210938 18.59375 -18.046875 18.59375 -18.851562 C 18.59375 -19.691406 17.917969 -20.527344 16.695312 -20.527344 Z M 16.695312 -20.527344 "/></g></g></g><g fill="#272727" fill-opacity="1"><g transform="translate(191.789515, 232.304882)"><g><path d="M 21.753906 -10.25 C 21.753906 -16.597656 17.5625 -20.851562 11.28125 -20.851562 C 4.964844 -20.851562 0.710938 -16.597656 0.710938 -10.25 C 0.710938 -3.898438 4.964844 0.324219 11.28125 0.324219 C 17.5625 0.324219 21.753906 -3.898438 21.753906 -10.25 Z M 11.28125 -2.964844 C 7.21875 -2.964844 4.511719 -5.898438 4.511719 -10.25 C 4.511719 -14.632812 7.21875 -17.5625 11.28125 -17.5625 C 15.308594 -17.5625 17.984375 -14.632812 17.984375 -10.25 C 17.984375 -5.898438 15.308594 -2.964844 11.28125 -2.964844 Z M 11.28125 -2.964844 "/></g></g></g><g fill="#272727" fill-opacity="1"><g transform="translate(217.313242, 232.304882)"><g><path d="M 18.59375 -3.160156 L 14.726562 -7.21875 C 18.015625 -8.152344 19.625 -10.539062 19.625 -13.566406 C 19.625 -17.433594 16.695312 -20.527344 10.925781 -20.527344 L 3.738281 -20.527344 C 2.644531 -20.527344 1.871094 -19.851562 1.871094 -18.851562 L 1.871094 -1.644531 C 1.871094 -0.582031 2.773438 0 3.738281 0 C 4.640625 0 5.609375 -0.582031 5.609375 -1.675781 L 5.609375 -6.769531 L 10.472656 -6.769531 L 16.242188 -0.613281 C 17.855469 1.128906 20.5625 -1.097656 18.59375 -3.160156 Z M 5.609375 -9.894531 L 5.609375 -17.273438 L 10.957031 -17.273438 C 13.988281 -17.273438 15.824219 -15.664062 15.855469 -13.535156 C 15.921875 -11.570312 14.40625 -9.894531 10.957031 -9.894531 Z M 5.609375 -9.894531 "/></g></g></g><g fill="#272727" fill-opacity="1"><g transform="translate(240.001026, 232.304882)"><g><path d="M 16.789062 -3.222656 L 5.542969 -3.222656 L 5.542969 -8.574219 L 16.210938 -8.574219 C 17.339844 -8.574219 17.886719 -9.347656 17.886719 -10.121094 C 17.886719 -10.925781 17.304688 -11.730469 16.210938 -11.730469 L 5.542969 -11.730469 L 5.542969 -17.371094 L 16.789062 -17.371094 C 17.886719 -17.371094 18.5 -18.207031 18.5 -18.980469 C 18.5 -19.789062 17.949219 -20.527344 16.789062 -20.527344 L 3.996094 -20.527344 C 2.707031 -20.527344 1.871094 -19.660156 1.871094 -18.628906 L 1.871094 -1.933594 C 1.871094 -0.871094 2.707031 0 3.996094 0 L 16.789062 0 C 17.984375 0 18.5625 -0.773438 18.5625 -1.546875 C 18.5625 -2.351562 17.917969 -3.222656 16.789062 -3.222656 Z M 16.789062 -3.222656 "/></g></g></g><g fill="#272727" fill-opacity="1"><g transform="translate(120.695366, 250.97263)"><g><path d="M 8.980469 -4.230469 C 8.980469 -6.851562 7.25 -8.609375 4.65625 -8.609375 C 2.050781 -8.609375 0.292969 -6.851562 0.292969 -4.230469 C 0.292969 -1.609375 2.050781 0.132812 4.65625 0.132812 C 7.25 0.132812 8.980469 -1.609375 8.980469 -4.230469 Z M 4.65625 -1.222656 C 2.980469 -1.222656 1.863281 -2.433594 1.863281 -4.230469 C 1.863281 -6.039062 2.980469 -7.25 4.65625 -7.25 C 6.320312 -7.25 7.425781 -6.039062 7.425781 -4.230469 C 7.425781 -2.433594 6.320312 -1.222656 4.65625 -1.222656 Z M 4.65625 -1.222656 "/></g></g></g><g fill="#272727" fill-opacity="1"><g transform="translate(132.161686, 250.97263)"><g><path d="M 6.414062 -7.824219 L 6.414062 -3.539062 L 6.464844 -2.648438 L 2.289062 -8.074219 C 2.074219 -8.34375 1.847656 -8.476562 1.515625 -8.476562 C 1.089844 -8.476562 0.707031 -8.195312 0.707031 -7.664062 L 0.707031 -0.707031 C 0.707031 -0.210938 1.089844 0 1.503906 0 C 1.890625 0 2.289062 -0.210938 2.289062 -0.707031 L 2.289062 -4.882812 L 2.234375 -5.628906 L 6.304688 -0.386719 C 6.480469 -0.160156 6.800781 0 7.105469 0 C 7.542969 0 7.996094 -0.265625 7.996094 -0.796875 L 7.996094 -7.824219 C 7.996094 -8.277344 7.625 -8.476562 7.226562 -8.476562 C 6.824219 -8.476562 6.414062 -8.25 6.414062 -7.824219 Z M 6.414062 -7.824219 "/></g></g></g><g fill="#272727" fill-opacity="1"><g transform="translate(142.909763, 250.97263)"><g><path d="M 1.558594 0 L 6.679688 0 C 7.199219 0 7.476562 -0.320312 7.476562 -0.664062 C 7.476562 -0.984375 7.199219 -1.332031 6.679688 -1.332031 L 2.316406 -1.332031 L 2.316406 -7.796875 C 2.316406 -8.25 1.914062 -8.476562 1.542969 -8.476562 C 1.144531 -8.476562 0.757812 -8.25 0.757812 -7.796875 L 0.757812 -0.71875 C 0.757812 -0.253906 0.984375 0 1.558594 0 Z M 1.558594 0 "/></g></g></g><g fill="#272727" fill-opacity="1"><g transform="translate(152.128256, 250.97263)"><g><path d="M 0.597656 -7.757812 L 0.597656 -0.679688 C 0.597656 -0.210938 0.972656 0 1.371094 0 C 1.757812 0 2.15625 -0.226562 2.15625 -0.679688 L 2.15625 -7.757812 C 2.15625 -8.25 1.757812 -8.476562 1.371094 -8.476562 C 0.972656 -8.476562 0.597656 -8.25 0.597656 -7.757812 Z M 0.597656 -7.757812 "/></g></g></g><g fill="#272727" fill-opacity="1"><g transform="translate(156.611699, 250.97263)"><g><path d="M 6.414062 -7.824219 L 6.414062 -3.539062 L 6.464844 -2.648438 L 2.289062 -8.074219 C 2.074219 -8.34375 1.847656 -8.476562 1.515625 -8.476562 C 1.089844 -8.476562 0.707031 -8.195312 0.707031 -7.664062 L 0.707031 -0.707031 C 0.707031 -0.210938 1.089844 0 1.503906 0 C 1.890625 0 2.289062 -0.210938 2.289062 -0.707031 L 2.289062 -4.882812 L 2.234375 -5.628906 L 6.304688 -0.386719 C 6.480469 -0.160156 6.800781 0 7.105469 0 C 7.542969 0 7.996094 -0.265625 7.996094 -0.796875 L 7.996094 -7.824219 C 7.996094 -8.277344 7.625 -8.476562 7.226562 -8.476562 C 6.824219 -8.476562 6.414062 -8.25 6.414062 -7.824219 Z M 6.414062 -7.824219 "/></g></g></g><g fill="#272727" fill-opacity="1"><g transform="translate(167.359774, 250.97263)"><g><path d="M 6.933594 -1.332031 L 2.289062 -1.332031 L 2.289062 -3.539062 L 6.691406 -3.539062 C 7.15625 -3.539062 7.382812 -3.859375 7.382812 -4.179688 C 7.382812 -4.511719 7.144531 -4.84375 6.691406 -4.84375 L 2.289062 -4.84375 L 2.289062 -7.171875 L 6.933594 -7.171875 C 7.382812 -7.171875 7.636719 -7.515625 7.636719 -7.835938 C 7.636719 -8.167969 7.410156 -8.476562 6.933594 -8.476562 L 1.648438 -8.476562 C 1.117188 -8.476562 0.773438 -8.117188 0.773438 -7.691406 L 0.773438 -0.796875 C 0.773438 -0.359375 1.117188 0 1.648438 0 L 6.933594 0 C 7.425781 0 7.664062 -0.320312 7.664062 -0.636719 C 7.664062 -0.972656 7.398438 -1.332031 6.933594 -1.332031 Z M 6.933594 -1.332031 "/></g></g></g><g fill="#272727" fill-opacity="1"><g transform="translate(177.416218, 250.97263)"><g/></g></g><g fill="#272727" fill-opacity="1"><g transform="translate(182.604597, 250.97263)"><g><path d="M 8.167969 -2.050781 L 8.167969 -4.136719 C 8.167969 -4.5625 7.984375 -4.855469 7.371094 -4.855469 L 4.722656 -4.855469 C 4.230469 -4.855469 3.992188 -4.523438 3.992188 -4.179688 C 3.992188 -3.859375 4.21875 -3.539062 4.722656 -3.539062 L 6.664062 -3.539062 L 6.664062 -2.183594 C 6.148438 -1.582031 5.308594 -1.210938 4.535156 -1.210938 C 2.902344 -1.210938 1.808594 -2.488281 1.78125 -4.269531 C 1.78125 -6.066406 2.902344 -7.292969 4.5625 -7.292969 C 5.28125 -7.292969 6.039062 -7.039062 6.613281 -6.441406 C 7.382812 -5.628906 8.5 -6.546875 7.742188 -7.34375 C 6.957031 -8.183594 5.734375 -8.609375 4.5625 -8.609375 C 1.984375 -8.609375 0.253906 -6.890625 0.253906 -4.3125 C 0.199219 -1.664062 1.902344 0.132812 4.523438 0.132812 C 5.773438 0.132812 7.15625 -0.546875 7.96875 -1.488281 C 8.128906 -1.664062 8.167969 -1.875 8.167969 -2.050781 Z M 8.167969 -2.050781 "/></g></g></g><g fill="#272727" fill-opacity="1"><g transform="translate(193.538882, 250.97263)"><g><path d="M 7.675781 -1.304688 L 6.082031 -2.980469 C 7.4375 -3.367188 8.101562 -4.351562 8.101562 -5.601562 C 8.101562 -7.199219 6.890625 -8.476562 4.511719 -8.476562 L 1.542969 -8.476562 C 1.089844 -8.476562 0.773438 -8.195312 0.773438 -7.785156 L 0.773438 -0.679688 C 0.773438 -0.238281 1.144531 0 1.542969 0 C 1.914062 0 2.316406 -0.238281 2.316406 -0.691406 L 2.316406 -2.792969 L 4.324219 -2.792969 L 6.707031 -0.253906 C 7.371094 0.464844 8.488281 -0.453125 7.675781 -1.304688 Z M 2.316406 -4.085938 L 2.316406 -7.132812 L 4.523438 -7.132812 C 5.773438 -7.132812 6.53125 -6.464844 6.546875 -5.589844 C 6.574219 -4.777344 5.949219 -4.085938 4.523438 -4.085938 Z M 2.316406 -4.085938 "/></g></g></g><g fill="#272727" fill-opacity="1"><g transform="translate(203.834736, 250.97263)"><g><path d="M 8.980469 -4.230469 C 8.980469 -6.851562 7.25 -8.609375 4.65625 -8.609375 C 2.050781 -8.609375 0.292969 -6.851562 0.292969 -4.230469 C 0.292969 -1.609375 2.050781 0.132812 4.65625 0.132812 C 7.25 0.132812 8.980469 -1.609375 8.980469 -4.230469 Z M 4.65625 -1.222656 C 2.980469 -1.222656 1.863281 -2.433594 1.863281 -4.230469 C 1.863281 -6.039062 2.980469 -7.25 4.65625 -7.25 C 6.320312 -7.25 7.425781 -6.039062 7.425781 -4.230469 C 7.425781 -2.433594 6.320312 -1.222656 4.65625 -1.222656 Z M 4.65625 -1.222656 "/></g></g></g><g fill="#272727" fill-opacity="1"><g transform="translate(215.301057, 250.97263)"><g><path d="M 4.65625 -8.609375 C 2.195312 -8.609375 0.304688 -6.90625 0.304688 -4.335938 C 0.304688 -1.648438 2.0625 0.132812 4.683594 0.132812 C 5.988281 0.132812 7.4375 -0.492188 8.167969 -1.515625 C 8.820312 -2.421875 7.675781 -3.179688 6.957031 -2.316406 C 6.453125 -1.703125 5.546875 -1.222656 4.710938 -1.222656 C 2.980469 -1.222656 1.835938 -2.460938 1.835938 -4.335938 C 1.835938 -6.082031 2.953125 -7.25 4.644531 -7.25 C 5.46875 -7.25 6.199219 -7.105469 6.867188 -6.386719 C 7.558594 -5.640625 8.6875 -6.480469 7.96875 -7.292969 C 7.105469 -8.261719 5.960938 -8.609375 4.65625 -8.609375 Z M 4.65625 -8.609375 "/></g></g></g><g fill="#272727" fill-opacity="1"><g transform="translate(225.729909, 250.97263)"><g><path d="M 6.933594 -1.332031 L 2.289062 -1.332031 L 2.289062 -3.539062 L 6.691406 -3.539062 C 7.15625 -3.539062 7.382812 -3.859375 7.382812 -4.179688 C 7.382812 -4.511719 7.144531 -4.84375 6.691406 -4.84375 L 2.289062 -4.84375 L 2.289062 -7.171875 L 6.933594 -7.171875 C 7.382812 -7.171875 7.636719 -7.515625 7.636719 -7.835938 C 7.636719 -8.167969 7.410156 -8.476562 6.933594 -8.476562 L 1.648438 -8.476562 C 1.117188 -8.476562 0.773438 -8.117188 0.773438 -7.691406 L 0.773438 -0.796875 C 0.773438 -0.359375 1.117188 0 1.648438 0 L 6.933594 0 C 7.425781 0 7.664062 -0.320312 7.664062 -0.636719 C 7.664062 -0.972656 7.398438 -1.332031 6.933594 -1.332031 Z M 6.933594 -1.332031 "/></g></g></g><g fill="#272727" fill-opacity="1"><g transform="translate(235.786347, 250.97263)"><g><path d="M 7.675781 -1.304688 L 6.082031 -2.980469 C 7.4375 -3.367188 8.101562 -4.351562 8.101562 -5.601562 C 8.101562 -7.199219 6.890625 -8.476562 4.511719 -8.476562 L 1.542969 -8.476562 C 1.089844 -8.476562 0.773438 -8.195312 0.773438 -7.785156 L 0.773438 -0.679688 C 0.773438 -0.238281 1.144531 0 1.542969 0 C 1.914062 0 2.316406 -0.238281 2.316406 -0.691406 L 2.316406 -2.792969 L 4.324219 -2.792969 L 6.707031 -0.253906 C 7.371094 0.464844 8.488281 -0.453125 7.675781 -1.304688 Z M 2.316406 -4.085938 L 2.316406 -7.132812 L 4.523438 -7.132812 C 5.773438 -7.132812 6.53125 -6.464844 6.546875 -5.589844 C 6.574219 -4.777344 5.949219 -4.085938 4.523438 -4.085938 Z M 2.316406 -4.085938 "/></g></g></g><g fill="#272727" fill-opacity="1"><g transform="translate(246.082195, 250.97263)"><g><path d="M 1.398438 -8.101562 C 1.222656 -8.34375 0.984375 -8.476562 0.691406 -8.476562 C 0.144531 -8.476562 -0.304688 -7.890625 0.105469 -7.34375 L 3.085938 -3.40625 L 3.085938 -0.796875 C 3.085938 -0.304688 3.433594 0 3.859375 0 C 4.203125 0 4.628906 -0.304688 4.628906 -0.796875 L 4.628906 -3.40625 L 7.542969 -7.304688 C 7.96875 -7.875 7.515625 -8.476562 7.011719 -8.476562 C 6.71875 -8.476562 6.480469 -8.316406 6.292969 -8.0625 L 3.84375 -4.761719 Z M 1.398438 -8.101562 "/></g></g></g><g clip-path="url(#d508d5d4b0)"><path fill="#8c52ff" d="M 150.507812 168.316406 C 151.421875 172.601562 155.21875 175.699219 159.566406 175.699219 L 205.441406 175.699219 C 209.789062 175.699219 213.585938 172.601562 214.5 168.316406 L 225.265625 117.414062 C 225.527344 116.128906 226.65625 115.210938 227.957031 115.210938 L 239.464844 115.210938 C 240.59375 115.210938 241.507812 114.289062 241.507812 113.152344 C 241.507812 112.015625 240.59375 111.09375 239.464844 111.09375 L 227.957031 111.09375 C 224.734375 111.09375 221.925781 113.394531 221.25 116.566406 L 214.570312 148.203125 L 168.433594 148.203125 L 175.933594 140.648438 C 176.726562 139.851562 176.726562 138.542969 175.933594 137.746094 C 175.140625 136.945312 173.839844 136.945312 173.046875 137.746094 L 162.066406 148.808594 C 161.273438 149.605469 161.273438 150.914062 162.066406 151.710938 L 173.023438 162.75 C 173.433594 163.160156 173.9375 163.355469 174.464844 163.355469 C 174.996094 163.355469 175.523438 163.160156 175.90625 162.75 C 176.699219 161.953125 176.699219 160.644531 175.90625 159.84375 L 168.410156 152.292969 L 213.65625 152.292969 L 210.460938 167.46875 C 209.957031 169.867188 207.84375 171.585938 205.414062 171.585938 L 159.542969 171.585938 C 157.117188 171.585938 155.003906 169.84375 154.5 167.46875 L 147.023438 132.105469 C 146.855469 131.28125 147.050781 130.433594 147.578125 129.78125 C 148.105469 129.128906 148.898438 128.742188 149.714844 128.742188 L 201.066406 128.742188 L 193.570312 136.292969 C 192.777344 137.09375 192.777344 138.398438 193.570312 139.199219 C 193.976562 139.609375 194.484375 139.804688 195.011719 139.804688 C 195.539062 139.804688 196.070312 139.609375 196.453125 139.199219 L 207.433594 128.136719 C 207.820312 127.75 208.035156 127.214844 208.035156 126.683594 C 208.035156 126.152344 207.820312 125.617188 207.433594 125.230469 L 196.453125 114.167969 C 195.660156 113.371094 194.363281 113.371094 193.570312 114.167969 C 192.777344 114.96875 192.777344 116.273438 193.570312 117.074219 L 201.066406 124.625 L 149.742188 124.625 C 147.675781 124.625 145.726562 125.570312 144.40625 127.191406 C 143.085938 128.8125 142.605469 130.917969 143.035156 132.976562 Z M 150.507812 168.316406 " fill-opacity="1" fill-rule="nonzero"/></g><path fill="#ff66c4" d="M 154.90625 190.128906 C 154.90625 195.5 159.257812 199.882812 164.589844 199.882812 C 169.925781 199.882812 174.273438 195.5 174.273438 190.128906 C 174.273438 184.753906 169.925781 180.371094 164.589844 180.371094 C 159.257812 180.371094 154.90625 184.753906 154.90625 190.128906 Z M 170.1875 190.128906 C 170.1875 193.226562 167.691406 195.765625 164.589844 195.765625 C 161.492188 195.765625 158.992188 193.25 158.992188 190.128906 C 158.992188 187.003906 161.492188 184.488281 164.589844 184.488281 C 167.691406 184.488281 170.1875 187.027344 170.1875 190.128906 Z M 170.1875 190.128906 " fill-opacity="1" fill-rule="nonzero"/><path fill="#ff66c4" d="M 190.6875 190.128906 C 190.6875 195.5 195.035156 199.882812 200.371094 199.882812 C 205.703125 199.882812 210.054688 195.5 210.054688 190.128906 C 210.054688 184.753906 205.703125 180.371094 200.371094 180.371094 C 195.035156 180.371094 190.6875 184.753906 190.6875 190.128906 Z M 205.96875 190.128906 C 205.96875 193.226562 203.46875 195.765625 200.371094 195.765625 C 197.269531 195.765625 194.769531 193.25 194.769531 190.128906 C 194.769531 187.003906 197.269531 184.488281 200.371094 184.488281 C 203.46875 184.488281 205.96875 187.027344 205.96875 190.128906 Z M 205.96875 190.128906 " fill-opacity="1" fill-rule="nonzero"/></svg>